# xmcd CD database file
#
# Track frame offsets:
#	150
#	23685
#	56031
#	75726
#	100302
#	117658
#	145923
#	176108
#	208505
#	227277
#	251202
#	278264
#
# Disc length: 4027 seconds
#
# Revision: 0
# Processed by: cddbd v1.5.2PL0 Copyright (c) Steve Scherf et al.
# Submitted via: CDex 1.70beta2
#
DISCID=a20fb90c
DTITLE=Kenny G - Rhythm and Romance
DYEAR=2008
DGENRE=Jazz
TTITLE0=Sax-O-Loco
TTITLE1=Ritmo Y Romance (Rhythm And Romance)
TTITLE2=Sabor A Mi
TTITLE3=Tango
TTITLE4=Mirame Bailar
TTITLE5=Peruvian Nights
TTITLE6=Brasilia
TTITLE7=Besame Mucho
TTITLE8=Fiesta Loca
TTITLE9=Es Hora De Decir
TTITLE10=Copa De Amor
TTITLE11=Salsa Kenny
EXTD=YEAR: 2008
EXTT0=
EXTT1=
EXTT2=
EXTT3=
EXTT4=
EXTT5=
EXTT6=
EXTT7=
EXTT8=
EXTT9=
EXTT10=
EXTT11=
PLAYORDER=
